<?xml version="1.0" standalone="yes"?>
<svg xmlns="http://www.w3.org/2000/svg" width="265" height="190">
<path style="fill:#feffff; stroke:none;" d="M0 0L0 190L265 190L265 0L0 0z"/>
<path style="fill:#3abddb; stroke:none;" d="M68 63C77.5969 61.0983 85.7373 47.9353 94 41.76C112.983 27.5732 136.224 25.6118 158 34L160 27C125.195 14.0228 82.9761 27.0383 68 63M172 22.6528C154.056 28.2813 163.15 55.9393 181 50.3472C199.01 44.7049 189.997 17.0076 172 22.6528z"/>
<path style="fill:#a89bc8; stroke:none;" d="M181 22L182 23L181 22M169 23L170 24L169 23M152 24L153 25L152 24M158 26L159 27L158 26M132.667 28.3333L133.333 28.6667L132.667 28.3333M121 29L122 30L121 29M143 29L144 30L143 29M151 31L152 32L151 31M190 31L191 32L190 31M94 32L95 33L94 32M154 32L155 33L154 32M158 33L159 34L158 33M91 34L92 35L91 34M105 34L106 35L105 34M103 35L104 36L103 35M101 36L102 37L101 36M87 37L88 38L87 37M190 41L191 42L190 41M92 42L93 43L92 42M77 47L78 48L77 47M126 47L126 48L129 48L126 47z"/>
<path style="fill:#7c69ac; stroke:none;" d="M101 123L101 117L102 117L102 121L105 119L106 119C106.656 127.419 117.242 126.944 124 127L124 118L125 118L125 121L130 121L131 73L130 47L94 54L81.0278 57.5995L80 71L80.9105 105L82.0278 119.397L101 123z"/>
<path style="fill:#a89bc8; stroke:none;" d="M130 47L131 48L130 47M121 48L121 49L124 49L121 48z"/>
<path style="fill:#553e93; stroke:none;" d="M131 48L130 121L125 118L124 118L124 127C117.34 126.863 107.27 126.969 106 119L105 119L102 121L102 117L101 117L101 123L82.0278 118.682L81 101L80 101L80 127C94.8388 129.878 114.972 138.994 130 137.101C140.269 135.808 151.354 128.741 161 125L161 124C154.997 122.836 143.789 122.425 139.514 117.697C136.679 114.561 137.006 109.924 137 106C136.985 96.5768 132.82 73.2811 140.279 66.4336C145.217 61.8996 157.531 61.5113 164 61C158.472 53.6391 139.676 50.8231 131 48z"/>
<path style="fill:#7c69ac; stroke:none;" d="M132 48L133 49L132 48z"/>
<path style="fill:#a89bc8; stroke:none;" d="M133 48L134 49L133 48M116.667 49.3333L117.333 49.6667L116.667 49.3333z"/>
<path style="fill:#7c69ac; stroke:none;" d="M135 49L136 50L135 49z"/>
<path style="fill:#a89bc8; stroke:none;" d="M136 49L137 50L136 49M183 49L184 50L183 49M110 50L110 51L113 51L110 50z"/>
<path style="fill:#7c69ac; stroke:none;" d="M138 50L139 51L138 50z"/>
<path style="fill:#a89bc8; stroke:none;" d="M139 50L140 51L139 50M188.667 50.3333L189.333 50.6667L188.667 50.3333M105 51L105 52L108 52L105 51z"/>
<path style="fill:#7c69ac; stroke:none;" d="M141 51L142 52L141 51z"/>
<path style="fill:#a89bc8; stroke:none;" d="M142 51L143 52L142 51z"/>
<path style="fill:#3abddb; stroke:none;" d="M184 53C186.032 60.9007 190.55 64.5692 198 67C196.312 59.897 192.695 49.5878 184 53z"/>
<path style="fill:#a89bc8; stroke:none;" d="M100.667 52.3333L101.333 52.6667L100.667 52.3333z"/>
<path style="fill:#7c69ac; stroke:none;" d="M144 52L145 53L144 52z"/>
<path style="fill:#a89bc8; stroke:none;" d="M145 52L146 53L145 52M94 53L94 54L97 54L94 53z"/>
<path style="fill:#7c69ac; stroke:none;" d="M147 53L148 54L147 53z"/>
<path style="fill:#a89bc8; stroke:none;" d="M148 53L149 54L148 53M89 54L89 55L92 55L89 54M150 54L151 55L150 54M84 55L84 56L87 56L84 55M153 55L154 56L153 55M80 56L81 57L80 56z"/>
<path style="fill:#7c69ac; stroke:none;" d="M155 56L156 57L155 56z"/>
<path style="fill:#a89bc8; stroke:none;" d="M156 56L157 57L156 56M193 56L194 57L193 56z"/>
<path style="fill:#7c69ac; stroke:none;" d="M158 57L159 58L158 57z"/>
<path style="fill:#a89bc8; stroke:none;" d="M159 57L160 58L159 57M107 81L108 81L108 78C112.745 78 119.147 76.5996 122 81L123 81L123 58L108.028 61.7384L107 81z"/>
<path style="fill:#7c69ac; stroke:none;" d="M161 58L162 59L161 58z"/>
<path style="fill:#a89bc8; stroke:none;" d="M162 58L163 59L162 58M186 58L187 59L186 58M69 59L70 60L69 59z"/>
<path style="fill:#7c69ac; stroke:none;" d="M164.333 59.6667L164.667 60.3333L164.333 59.6667z"/>
<path style="fill:#a89bc8; stroke:none;" d="M165 59L165 61L167 61L165 59M68 61L69 62L68 61M75 61L76 62L75 61z"/>
<path style="fill:#7c69ac; stroke:none;" d="M159 61L160 62L159 61z"/>
<path style="fill:#a89bc8; stroke:none;" d="M160.667 61.3333L161.333 61.6667L160.667 61.3333M70 62L71 63L70 62M87 64L87 78L100 78L101 62L87 64z"/>
<path style="fill:#7c69ac; stroke:none;" d="M153 62L154 63L153 62z"/>
<path style="fill:#a89bc8; stroke:none;" d="M154.667 62.3333L155.333 62.6667L154.667 62.3333M174 62L175 63L174 62z"/>
<path style="fill:#7c69ac; stroke:none;" d="M148 63L149 64L148 63z"/>
<path style="fill:#a89bc8; stroke:none;" d="M149.667 63.3333L150.333 63.6667L149.667 63.3333M169 63L169 64L172 64L169 63z"/>
<path style="fill:#7c69ac; stroke:none;" d="M142 69L142 116L175 123L177 63L142 69z"/>
<path style="fill:#553e93; stroke:none;" d="M175 63L176 64L175 63z"/>
<path style="fill:#a89bc8; stroke:none;" d="M177 63L178 64L177 63z"/>
<path style="fill:#7c69ac; stroke:none;" d="M142.667 64.3333L143.333 64.6667L142.667 64.3333z"/>
<path style="fill:#a89bc8; stroke:none;" d="M144.667 64.3333L145.333 64.6667L144.667 64.3333M163 64L163 65L166 65L163 64z"/>
<path style="fill:#553e93; stroke:none;" d="M176 64L176 122C183.61 119.425 202.3 115.022 206.972 108.362C209.342 104.984 208 97.9344 208 94C208 89.0707 209.793 79.6654 206.972 75.419C202.99 69.4258 182.931 65.0236 176 64z"/>
<path style="fill:#7c69ac; stroke:none;" d="M179 64L180 65L179 64z"/>
<path style="fill:#a89bc8; stroke:none;" d="M180 64L181 65L180 64M197 64L198 65L197 64M73 65L73 66L76 66L73 65M140 65L141 66L140 65M158 65L158 66L161 66L158 65M182 65L183 66L182 65M68 66L68 67L71 67L68 66z"/>
<path style="fill:#7c69ac; stroke:none;" d="M57 69L57 116L76 120L76 66L57 69z"/>
<path style="fill:#a89bc8; stroke:none;" d="M153.667 66.3333L154.333 66.6667L153.667 66.3333M185 66L186 67L185 66M196 66L197 67L196 66M63 67L63 68L66 68L63 67M138 67L139 68L138 67M147 67L147 68L150 68L147 67M188 67L189 68L188 67M58.6667 68.3333L59.3333 68.6667L58.6667 68.3333M142 68L142 69L145 69L142 68z"/>
<path style="fill:#7c69ac; stroke:none;" d="M190 68L191 69L190 68z"/>
<path style="fill:#a89bc8; stroke:none;" d="M191 68L192 69L191 68M141 69L141 116L142 116C142 102.735 146.11 81.1767 141 69z"/>
<path style="fill:#7c69ac; stroke:none;" d="M193 69L194 70L193 69z"/>
<path style="fill:#a89bc8; stroke:none;" d="M194 69L195 70L194 69z"/>
<path style="fill:#7c69ac; stroke:none;" d="M137 70L137 115L138 115C138 102.258 141.91 81.7012 137 70M196 70L197 71L196 70z"/>
<path style="fill:#a89bc8; stroke:none;" d="M197 70L198 71L197 70z"/>
<path style="fill:#7c69ac; stroke:none;" d="M199 71L200 72L199 71z"/>
<path style="fill:#a89bc8; stroke:none;" d="M200 71L201 72L200 71z"/>
<path style="fill:#7c69ac; stroke:none;" d="M202 72L203 73L202 72z"/>
<path style="fill:#a89bc8; stroke:none;" d="M203 72L204 73L203 72M205 73L206 74L205 73z"/>
<path style="fill:#7c69ac; stroke:none;" d="M207 74L208 75L207 74z"/>
<path style="fill:#a89bc8; stroke:none;" d="M87.3333 79.6667L87.6667 80.3333L87.3333 79.6667z"/>
<path style="fill:#7c69ac; stroke:none;" d="M206 109L207 110L206 109z"/>
<path style="fill:#a89bc8; stroke:none;" d="M207 109L208 110L207 109z"/>
<path style="fill:#7c69ac; stroke:none;" d="M204 110L205 111L204 110z"/>
<path style="fill:#a89bc8; stroke:none;" d="M202 111L203 112L202 111z"/>
<path style="fill:#7c69ac; stroke:none;" d="M199 112L200 113L199 112z"/>
<path style="fill:#a89bc8; stroke:none;" d="M200 112L201 113L200 112M197 113L198 114L197 113z"/>
<path style="fill:#7c69ac; stroke:none;" d="M194 114L195 115L194 114z"/>
<path style="fill:#a89bc8; stroke:none;" d="M195 114L196 115L195 114z"/>
<path style="fill:#7c69ac; stroke:none;" d="M192 115L193 116L192 115z"/>
<path style="fill:#a89bc8; stroke:none;" d="M59.6667 116.333L60.3333 116.667L59.6667 116.333M144.667 116.333L145.333 116.667L144.667 116.333z"/>
<path style="fill:#7c69ac; stroke:none;" d="M189 116L190 117L189 116z"/>
<path style="fill:#a89bc8; stroke:none;" d="M190 116L191 117L190 116M63 117L63 118L66 118L63 117M138 117L139 118L138 117M148.667 117.333L149.333 117.667L148.667 117.333z"/>
<path style="fill:#7c69ac; stroke:none;" d="M187 117L188 118L187 117z"/>
<path style="fill:#a89bc8; stroke:none;" d="M188 117L189 118L188 117M197 117L199 119L197 117z"/>
<path style="fill:#3abddb; stroke:none;" d="M198 117L199 118L198 117z"/>
<path style="fill:#a89bc8; stroke:none;" d="M68.6667 118.333L69.3333 118.667L68.6667 118.333z"/>
<path style="fill:#553e93; stroke:none;" d="M85.3333 118.667L85.6667 119.333L85.3333 118.667z"/>
<path style="fill:#a89bc8; stroke:none;" d="M153.667 118.333L154.333 118.667L153.667 118.333M185 118L186 119L185 118z"/>
<path style="fill:#3abddb; stroke:none;" d="M114 154L113 161C144.076 169.733 191.567 154.087 198 118C186.5 119.994 180.808 135.375 172 142.532C154.675 156.611 134.957 158.323 114 154z"/>
<path style="fill:#a89bc8; stroke:none;" d="M72 119L72 120L75 120L72 119z"/>
<path style="fill:#7c69ac; stroke:none;" d="M140 119L141 120L140 119z"/>
<path style="fill:#a89bc8; stroke:none;" d="M141 119L142 120L141 119M157 119L157 120L160 120L157 119z"/>
<path style="fill:#7c69ac; stroke:none;" d="M182 119L183 120L182 119z"/>
<path style="fill:#a89bc8; stroke:none;" d="M183 119L184 120L183 119z"/>
<path style="fill:#7c69ac; stroke:none;" d="M144 120L145 121L144 120z"/>
<path style="fill:#a89bc8; stroke:none;" d="M145.667 120.333L146.333 120.667L145.667 120.333M162.667 120.333L163.333 120.667L162.667 120.333M180 120L181 121L180 120z"/>
<path style="fill:#7c69ac; stroke:none;" d="M149 121L150 122L149 121z"/>
<path style="fill:#a89bc8; stroke:none;" d="M150 121L151 122L150 121M166 121L166 122L169 122L166 121z"/>
<path style="fill:#7c69ac; stroke:none;" d="M177 121L178 122L177 121z"/>
<path style="fill:#a89bc8; stroke:none;" d="M178 121L179 122L178 121M189 121L190 122L189 121z"/>
<path style="fill:#3abddb; stroke:none;" d="M68 122L81 142L82 142L87 138C82.5638 131.759 75.5469 123.589 68 122z"/>
<path style="fill:#7c69ac; stroke:none;" d="M153 122L154 123L153 122z"/>
<path style="fill:#a89bc8; stroke:none;" d="M154.667 122.333L155.333 122.667L154.667 122.333M171.667 122.333L172.333 122.667L171.667 122.333M175 122L176 123L175 122M74 123L75 124L74 123z"/>
<path style="fill:#7c69ac; stroke:none;" d="M158 123L159 124L158 123z"/>
<path style="fill:#a89bc8; stroke:none;" d="M159 123L160 124L159 123M188 123L189 124L188 123z"/>
<path style="fill:#7c69ac; stroke:none;" d="M161 124L162 125L161 124M159 125L160 126L159 125z"/>
<path style="fill:#a89bc8; stroke:none;" d="M157 126L158 127L157 126M81 127L82 128L81 127z"/>
<path style="fill:#7c69ac; stroke:none;" d="M82 127L83 128L82 127M154 127L155 128L154 127z"/>
<path style="fill:#a89bc8; stroke:none;" d="M155 127L156 128L155 127M85 128L86 129L85 128z"/>
<path style="fill:#7c69ac; stroke:none;" d="M86.6667 128.333L87.3333 128.667L86.6667 128.333z"/>
<path style="fill:#a89bc8; stroke:none;" d="M152 128L153 129L152 128M185 128L186 129L185 128M89.6667 129.333L90.3333 129.667L89.6667 129.333z"/>
<path style="fill:#7c69ac; stroke:none;" d="M91 129L92 130L91 129M149 129L150 130L149 129z"/>
<path style="fill:#a89bc8; stroke:none;" d="M150 129L151 130L150 129M94.6667 130.333L95.3333 130.667L94.6667 130.333M147 130L148 131L147 130M192 130L193 131L192 130M81 131L82 132L81 131M98.6667 131.333L99.3333 131.667L98.6667 131.333z"/>
<path style="fill:#7c69ac; stroke:none;" d="M100 131L101 132L100 131M144 131L145 132L144 131z"/>
<path style="fill:#a89bc8; stroke:none;" d="M145 131L146 132L145 131M73 132L74 133L73 132M103.667 132.333L104.333 132.667L103.667 132.333z"/>
<path style="fill:#7c69ac; stroke:none;" d="M105 132L106 133L105 132M142 132L143 133L142 132z"/>
<path style="fill:#a89bc8; stroke:none;" d="M182 132L183 133L182 132M108 133L109 134L108 133z"/>
<path style="fill:#7c69ac; stroke:none;" d="M109 133L110 134L109 133z"/>
<path style="fill:#a89bc8; stroke:none;" d="M140 133L141 134L140 133M190 133L191 134L190 133M112.667 134.333L113.333 134.667L112.667 134.333z"/>
<path style="fill:#7c69ac; stroke:none;" d="M114 134L115 135L114 134M137 134L138 135L137 134z"/>
<path style="fill:#a89bc8; stroke:none;" d="M138 134L139 135L138 134M117 135L118 136L117 135z"/>
<path style="fill:#7c69ac; stroke:none;" d="M118 135L119 136L118 135z"/>
<path style="fill:#a89bc8; stroke:none;" d="M135 135L136 136L135 135M121.667 136.333L122.333 136.667L121.667 136.333z"/>
<path style="fill:#7c69ac; stroke:none;" d="M123 136L124 137L123 136M132 136L133 137L132 136z"/>
<path style="fill:#a89bc8; stroke:none;" d="M133 136L134 137L133 136M126 137L127 138L126 137z"/>
<path style="fill:#7c69ac; stroke:none;" d="M127.667 137.333L128.333 137.667L127.667 137.333M130 137L131 138L130 137z"/>
<path style="fill:#a89bc8; stroke:none;" d="M187 137L188 138L187 137z"/>
<path style="fill:#3abddb; stroke:none;" d="M92.0008 139.558C73.0623 144.519 81.9896 173.316 101 167.347C118.613 161.817 109.178 135.058 92.0008 139.558z"/>
<path style="fill:#a89bc8; stroke:none;" d="M102 140L103 141L102 140M105 142L106 143L105 142M172 142L173 143L172 142M106 143L107 144L106 143M84 144L85 145L84 144M107 144L108 145L107 144M168 145L169 146L168 145M81 150L82 151L81 150M110 151L111 152L110 151M152 153L153 154L152 153M167 154L168 155L167 154M110 156L111 157L110 156M126 156L127 157L126 156M137.667 156.333L138.333 156.667L137.667 156.333M161 157L162 158L161 157M114 161L115 162L114 161M125 163L126 164L125 163M138 163L139 164L138 163M103 166L104 167L103 166M90 167L91 168L90 167M101 167L102 168L101 167M94 168L94 169L98 169L94 168z"/>
</svg>
