<?xml version="1.0" encoding="UTF-8"?>
<!DOCTYPE svg PUBLIC "-//W3C//DTD SVG 1.1//EN" "http://www.w3.org/Graphics/SVG/1.1/DTD/svg11.dtd">
<svg xmlns="http://www.w3.org/2000/svg" version="1.1" width="327px" height="330px" style="shape-rendering:geometricPrecision; text-rendering:geometricPrecision; image-rendering:optimizeQuality; fill-rule:evenodd; clip-rule:evenodd" xmlns:xlink="http://www.w3.org/1999/xlink">
<g><path style="opacity:0.899" fill="#21bfd3" d="M 156.5,16.5 C 157.794,18.0478 158.461,20.0478 158.5,22.5C 158.167,24.5 157.833,26.5 157.5,28.5C 132.833,40.8333 108.167,53.1667 83.5,65.5C 80.9087,63.6201 78.4087,61.6201 76,59.5C 75.3828,58.5509 75.5494,57.7175 76.5,57C 103.383,43.7255 130.05,30.2255 156.5,16.5 Z"/></g>
<g><path style="opacity:0.899" fill="#21bfd3" d="M 167.5,16.5 C 195.145,29.9888 222.811,43.4888 250.5,57C 251.451,57.7175 251.617,58.5509 251,59.5C 248.356,61.31 245.856,63.31 243.5,65.5C 218.377,53.4385 193.377,41.1051 168.5,28.5C 167.509,24.5546 167.176,20.5546 167.5,16.5 Z"/></g>
<g><path style="opacity:0.913" fill="#2590ce" d="M 159.5,44.5 C 161.857,44.3367 164.19,44.5034 166.5,45C 188.044,55.9385 209.71,66.6052 231.5,77C 232.667,78.1667 233.833,79.3333 235,80.5C 240.771,104.859 246.605,129.192 252.5,153.5C 251.846,155.115 251.346,156.782 251,158.5C 236.093,176.651 221.426,194.984 207,213.5C 205.457,215.378 203.624,216.878 201.5,218C 175.5,218.667 149.5,218.667 123.5,218C 122.069,217.535 120.903,216.701 120,215.5C 104.285,196.12 88.9514,176.453 74,156.5C 73.3333,154.5 73.3333,152.5 74,150.5C 79.7151,126.305 86.0485,102.305 93,78.5C 115.306,67.2645 137.473,55.9312 159.5,44.5 Z M 161.5,55.5 C 182.589,65.21 203.589,75.21 224.5,85.5C 230.631,107.69 236.298,130.023 241.5,152.5C 226.954,171.091 212.287,189.591 197.5,208C 174.5,208.667 151.5,208.667 128.5,208C 113.057,189.896 98.3901,171.23 84.5,152C 90.078,130.188 95.578,108.355 101,86.5C 121.306,76.2646 141.473,65.9312 161.5,55.5 Z"/></g>
<g><path style="opacity:0.902" fill="#1a448a" d="M 69.5,65.5 C 72.7727,67.4342 75.7727,69.7675 78.5,72.5C 71.675,99.4665 65.0084,126.467 58.5,153.5C 54.8641,154.326 51.1974,154.992 47.5,155.5C 54.2086,125.332 61.542,95.3325 69.5,65.5 Z"/></g>
<g><path style="opacity:0.906" fill="#1a448a" d="M 255.5,65.5 C 256.496,65.4142 257.329,65.7476 258,66.5C 264.995,96.1463 271.829,125.813 278.5,155.5C 275.478,155.196 272.478,154.696 269.5,154C 268.151,153.228 267.318,152.061 267,150.5C 260.911,124.646 254.745,98.8126 248.5,73C 250.41,70.058 252.744,67.558 255.5,65.5 Z"/></g>
<g><path style="opacity:0.895" fill="#77bf42" d="M 57.5,161.5 C 59.3904,161.297 60.8904,161.963 62,163.5C 78.2861,184.788 94.9528,205.788 112,226.5C 111.846,230.827 110.513,234.827 108,238.5C 87.4597,214.149 67.9597,189.149 49.5,163.5C 52.4282,163.435 55.0948,162.768 57.5,161.5 Z"/></g>
<g><path style="opacity:0.893" fill="#77bf42" d="M 265.5,161.5 C 269.264,162.12 272.931,163.12 276.5,164.5C 276,165.5 275.5,166.5 275,167.5C 255.906,191.35 236.573,215.017 217,238.5C 214.467,234.797 213.134,230.797 213,226.5C 230.713,204.959 248.213,183.292 265.5,161.5 Z"/></g>
<g><path style="opacity:0.875" fill="#21bfd3" d="M 120.5,231.5 C 148.502,231.333 176.502,231.5 204.5,232C 206.294,235.088 207.961,238.254 209.5,241.5C 178.172,242.667 146.839,242.833 115.5,242C 117.036,238.428 118.703,234.928 120.5,231.5 Z"/></g>
<g><path style="opacity:0.783" fill="#000000" d="M 10.5,279.5 C 12.7925,279.244 14.9592,279.577 17,280.5C 19.9535,288.036 23.2868,295.369 27,302.5C 30,295.167 33,287.833 36,280.5C 38.1385,279.231 40.3052,279.231 42.5,280.5C 38.2598,290.392 33.9265,300.225 29.5,310C 27.2305,310.758 25.0639,310.591 23,309.5C 18.7296,299.517 14.563,289.517 10.5,279.5 Z"/></g>
<g><path style="opacity:0.772" fill="#000000" d="M 46.5,279.5 C 48.4672,279.261 50.3005,279.594 52,280.5C 55.3333,286.5 58.6667,292.5 62,298.5C 64.7453,292.675 67.7453,287.008 71,281.5C 72.7889,279.771 74.9556,279.104 77.5,279.5C 77.5,289.833 77.5,300.167 77.5,310.5C 75.5,310.5 73.5,310.5 71.5,310.5C 71.6662,304.491 71.4995,298.491 71,292.5C 68.0704,298.034 64.9038,303.367 61.5,308.5C 58.3972,303.294 55.5639,297.96 53,292.5C 52.5005,298.491 52.3338,304.491 52.5,310.5C 50.5,310.5 48.5,310.5 46.5,310.5C 46.5,300.167 46.5,289.833 46.5,279.5 Z"/></g>
<g><path style="opacity:0.721" fill="#000000" d="M 195.5,279.5 C 203.833,279.5 212.167,279.5 220.5,279.5C 220.5,281.5 220.5,283.5 220.5,285.5C 217.167,285.5 213.833,285.5 210.5,285.5C 210.5,293.833 210.5,302.167 210.5,310.5C 208.5,310.5 206.5,310.5 204.5,310.5C 204.5,302.167 204.5,293.833 204.5,285.5C 201.5,285.5 198.5,285.5 195.5,285.5C 195.5,283.5 195.5,281.5 195.5,279.5 Z"/></g>
<g><path style="opacity:0.775" fill="#000000" d="M 124.5,286.5 C 129.039,285.957 132.873,287.29 136,290.5C 137.42,297.05 137.92,303.716 137.5,310.5C 135.234,310.859 133.401,310.192 132,308.5C 126.384,312.913 121.384,312.246 117,306.5C 115.707,302.418 116.874,299.251 120.5,297C 124.542,295.543 128.542,295.043 132.5,295.5C 129.493,290.934 125.66,290.267 121,293.5C 119.916,292.335 119.083,291.002 118.5,289.5C 120.594,288.482 122.594,287.482 124.5,286.5 Z M 125.5,299.5 C 127.806,299.993 130.139,300.326 132.5,300.5C 131.707,305.776 128.707,307.609 123.5,306C 122.643,305.311 121.977,304.478 121.5,303.5C 122.549,301.784 123.882,300.451 125.5,299.5 Z"/></g>
<g><path style="opacity:0.728" fill="#000000" d="M 153.5,286.5 C 154.5,286.5 155.5,286.5 156.5,286.5C 156.5,288.167 156.5,289.833 156.5,291.5C 153.154,291.435 150.654,292.768 149,295.5C 148.501,300.489 148.334,305.489 148.5,310.5C 146.5,310.5 144.5,310.5 142.5,310.5C 142.5,302.833 142.5,295.167 142.5,287.5C 145.079,287.083 147.246,287.75 149,289.5C 150.409,288.219 151.909,287.219 153.5,286.5 Z"/></g>
<g><path style="opacity:0.777" fill="#000000" d="M 167.5,286.5 C 177.958,286.287 182.292,291.287 180.5,301.5C 175.23,300.549 169.897,300.215 164.5,300.5C 164.452,303.292 165.785,305.125 168.5,306C 171.516,306.664 174.349,306.164 177,304.5C 178.622,304.954 179.788,305.954 180.5,307.5C 171.451,313.759 164.285,312.093 159,302.5C 157.924,294.981 160.757,289.648 167.5,286.5 Z M 167.5,291.5 C 171.811,290.536 174.811,292.036 176.5,296C 172.459,296.827 168.459,296.66 164.5,295.5C 165.524,294.148 166.524,292.815 167.5,291.5 Z"/></g>
<g><path style="opacity:0.772" fill="#000000" d="M 229.5,286.5 C 234.039,285.957 237.873,287.29 241,290.5C 242.377,297.076 242.877,303.743 242.5,310.5C 240.234,310.859 238.401,310.192 237,308.5C 232.373,312.486 227.706,312.486 223,308.5C 220.05,302.643 221.55,298.477 227.5,296C 230.907,295.518 234.24,295.518 237.5,296C 234.724,291.059 230.891,290.226 226,293.5C 224.916,292.335 224.083,291.002 223.5,289.5C 225.444,288.199 227.444,287.199 229.5,286.5 Z M 230.5,299.5 C 232.806,299.993 235.139,300.326 237.5,300.5C 236.707,305.776 233.707,307.609 228.5,306C 226.048,303.04 226.714,300.873 230.5,299.5 Z"/></g>
<g><path style="opacity:0.777" fill="#000000" d="M 256.5,286.5 C 260.803,285.796 264.303,287.13 267,290.5C 268.42,297.05 268.92,303.716 268.5,310.5C 266.833,310.5 265.167,310.5 263.5,310.5C 263.666,305.156 263.499,299.823 263,294.5C 260.419,290.943 257.419,290.61 254,293.5C 253.501,299.157 253.334,304.824 253.5,310.5C 251.5,310.5 249.5,310.5 247.5,310.5C 247.5,302.833 247.5,295.167 247.5,287.5C 249.792,287.244 251.959,287.577 254,288.5C 254.995,287.934 255.828,287.267 256.5,286.5 Z"/></g>
<g><path style="opacity:0.795" fill="#000000" d="M 81.5,287.5 C 83.288,287.215 84.9547,287.548 86.5,288.5C 88.3006,293.069 89.8006,297.735 91,302.5C 92.8102,297.571 94.3102,292.571 95.5,287.5C 97.4672,287.261 99.3005,287.594 101,288.5C 102.284,293.024 103.95,297.357 106,301.5C 107.178,297.12 108.512,292.787 110,288.5C 111.699,287.594 113.533,287.261 115.5,287.5C 113.012,295.12 110.678,302.787 108.5,310.5C 106.533,310.739 104.699,310.406 103,309.5C 101.716,304.976 100.05,300.643 98,296.5C 96.5117,300.787 95.1783,305.12 94,309.5C 92.1862,310.76 90.3529,310.76 88.5,309.5C 85.7586,302.277 83.4252,294.943 81.5,287.5 Z"/></g>
<g><path style="opacity:0.796" fill="#000000" d="M 272.5,287.5 C 278.833,287.5 285.167,287.5 291.5,287.5C 289.005,294.197 285.005,300.03 279.5,305C 283.486,305.499 287.486,305.666 291.5,305.5C 291.5,307.167 291.5,308.833 291.5,310.5C 284.833,310.5 278.167,310.5 271.5,310.5C 271.343,309.127 271.51,307.793 272,306.5C 275.833,302 279.667,297.5 283.5,293C 279.848,292.501 276.182,292.335 272.5,292.5C 272.5,290.833 272.5,289.167 272.5,287.5 Z"/></g>
<g><path style="opacity:0.767" fill="#000000" d="M 294.5,287.5 C 296.5,287.5 298.5,287.5 300.5,287.5C 300.803,292.43 300.469,297.263 299.5,302C 301.624,306.823 304.791,307.656 309,304.5C 309.499,298.843 309.666,293.176 309.5,287.5C 311.5,287.5 313.5,287.5 315.5,287.5C 315.5,295.167 315.5,302.833 315.5,310.5C 313.208,310.756 311.041,310.423 309,309.5C 304.15,312.373 299.817,311.706 296,307.5C 294.58,300.95 294.08,294.284 294.5,287.5 Z"/></g>
</svg>
