<svg width="80" height="80" xmlns="http://www.w3.org/2000/svg" xmlns:xlink="http://www.w3.org/1999/xlink" overflow="hidden"><defs><clipPath id="clip0"><rect x="313" y="124" width="80" height="80"/></clipPath><linearGradient x1="313" y1="204" x2="393" y2="124" gradientUnits="userSpaceOnUse" spreadMethod="pad" id="fill1"><stop offset="0" stop-color="#C8511B"/><stop offset="1" stop-color="#FF9900"/></linearGradient></defs><g clip-path="url(#clip0)" transform="translate(-313 -124)"><path d="M313 124 393 124 393 204 313 204Z" fill="url(#fill1)" fill-rule="evenodd"/><path d="M372.529 152.752C372.082 152.031 371.591 151.351 371.057 150.716L377.61 147.995C378.01 148.624 378.603 149.571 379.068 150.374L372.529 152.752ZM367.46 165.275C367.427 162.769 366.852 160.299 365.766 158.012L372.245 155.653C373.255 157.938 373.903 160.346 374.178 162.833L367.46 165.275ZM377.091 163.902 378.493 163.392C378.587 167.116 377.815 170.831 376.236 174.212 370.571 186.363 356.076 191.641 343.925 185.975 340.54 184.396 337.56 182.045 335.24 179.133L342.206 176.596C343.564 177.889 345.116 178.948 346.827 179.747 351.045 181.714 355.782 181.919 360.164 180.323 364.547 178.728 368.044 175.526 370.009 171.308 370.809 169.598 371.3 167.79 371.508 165.932L377.091 163.902ZM326.706 172.229 333.184 169.87C333.82 172.316 334.967 174.579 336.556 176.525L329.838 178.97C328.456 176.893 327.405 174.632 326.706 172.229L326.706 172.229ZM340.339 162.146C340.349 162.895 340.409 163.648 340.516 164.401L333.955 166.791C333.8 166.047 333.682 165.314 333.6 164.597L340.339 162.146ZM363.484 157.947C364.975 160.622 365.644 163.629 365.419 166.644 365.393 166.982 365.542 167.311 365.812 167.516 365.988 167.649 366.201 167.719 366.416 167.719 366.531 167.719 366.646 167.699 366.758 167.659L369.386 166.703C369.153 167.996 368.76 169.256 368.197 170.462 366.457 174.197 363.36 177.031 359.479 178.444 355.6 179.856 351.406 179.675 347.673 177.934 345.984 177.146 344.47 176.071 343.175 174.742 342.9 174.46 342.484 174.366 342.117 174.5L338.573 175.791C336.744 173.749 335.493 171.268 334.939 168.56L341.982 165.996C342.444 165.828 342.715 165.35 342.623 164.868 342.359 163.498 342.278 162.122 342.38 160.777 342.405 160.439 342.258 160.11 341.987 159.905 341.716 159.7 341.361 159.648 341.041 159.762L338.903 160.54C339.135 159.233 339.524 157.975 340.078 156.786 343.676 149.067 352.884 145.716 360.605 149.314 362.264 150.089 363.774 151.166 365.092 152.513 365.377 152.807 365.813 152.896 366.19 152.737L369.108 151.525C369.789 152.269 370.386 153.109 370.925 154.005L364.015 156.521C363.74 156.621 363.522 156.837 363.42 157.111 363.318 157.386 363.341 157.691 363.484 157.947L363.484 157.947ZM329.776 163.86C329.688 160.136 330.462 156.42 332.039 153.036 337.706 140.888 352.2 135.611 364.352 141.275 367.618 142.8 370.514 145.058 372.799 147.827L366.036 150.636C364.668 149.337 363.128 148.285 361.451 147.502 352.729 143.436 342.33 147.223 338.265 155.941 337.48 157.626 336.993 159.432 336.781 161.312L329.776 163.86ZM381.4 150.481C380.761 149.163 378.916 146.325 378.838 146.205 378.574 145.8 378.06 145.643 377.616 145.827L374.722 147.028C372.194 143.814 368.917 141.2 365.198 139.463 352.05 133.332 336.359 139.042 330.226 152.191 328.316 156.288 327.495 160.835 327.85 165.341 327.875 165.653 328.044 165.935 328.306 166.104 328.568 166.273 328.894 166.308 329.189 166.203L331.673 165.299C331.795 166.215 331.977 167.152 332.205 168.099L325.158 170.665C324.675 170.84 324.405 171.352 324.53 171.849 325.341 175.064 326.723 178.061 328.637 180.753 328.83 181.023 329.136 181.174 329.453 181.174 329.567 181.174 329.682 181.155 329.795 181.114L333.279 179.847C335.846 183.242 339.214 185.984 343.079 187.787 346.666 189.459 350.44 190.251 354.158 190.251 364.075 190.25 373.589 184.622 378.049 175.059 379.961 170.963 380.78 166.417 380.417 161.91 380.391 161.599 380.222 161.318 379.96 161.149 379.697 160.981 379.372 160.945 379.078 161.051L376.408 162.022 376.109 162.131C375.762 159.448 374.997 156.857 373.855 154.398L380.842 151.856C381.107 151.759 381.32 151.555 381.426 151.293 381.533 151.03 381.523 150.735 381.4 150.481L381.4 150.481Z" fill="#FFFFFF" fill-rule="evenodd"/></g></svg>